# xmcd
#
# Track frame offsets: 
#        150
#        24852
#        40836
#        55584
#        83093
#        99977
#        122141
#        136942
#        159155
#        178717
#        197512
#        221766
#        233337
#        252744
#        270960
#        294059
#
# Disc length: 4317 seconds
#
# Revision: 0
# Processed by: cddbd v1.5.2PL0 Copyright (c) Steve Scherf et al.
# Submitted via: ExactAudioCopy v0.95b4
#
DISCID=c510db10
DTITLE=Gruenling, Dennis - Up All Night
DYEAR=2000
DGENRE=Blues
TTITLE0=Stockyard Blues
TTITLE1=True Love
TTITLE2=You Got It
TTITLE3=Dirty Deal
TTITLE4=Roller Coaster
TTITLE5=I Want A Woman
TTITLE6=It's You I'm Thinking Of
TTITLE7=I Gotta Have Her
TTITLE8=Hoo Done Doo Dat
TTITLE9=Left For Dead
TTITLE10=Up All Night
TTITLE11=On Fire
TTITLE12=Got To Get To My Baby
TTITLE13=Goin' To Chicago
TTITLE14=Bluesin'
TTITLE15=Bonus
EXTD=
EXTT0=
EXTT1=
EXTT2=
EXTT3=
EXTT4=
EXTT5=
EXTT6=
EXTT7=
EXTT8=
EXTT9=
EXTT10=
EXTT11=
EXTT12=
EXTT13=
EXTT14=
EXTT15=
PLAYORDER=
